<?xml version="1.0" standalone="no"?>
<!DOCTYPE svg PUBLIC "-//W3C//DTD SVG 20010904//EN"
 "http://www.w3.org/TR/2001/REC-SVG-20010904/DTD/svg10.dtd">
<svg version="1.0" xmlns="http://www.w3.org/2000/svg"
 width="512.000000pt" height="512.000000pt" viewBox="0 0 512.000000 512.000000"
 preserveAspectRatio="xMidYMid meet">

<g transform="translate(0.000000,512.000000) scale(0.100000,-0.100000)"
fill="#000000" stroke="none">
<path d="M880 3937 c-47 -15 -103 -74 -118 -123 -9 -32 -12 -281 -12 -1043 l0
-1001 35 -1 c19 0 811 0 1760 0 949 0 1743 0 1765 0 l40 1 0 1010 0 1010 -21
46 c-23 49 -64 85 -118 103 -47 16 -3280 14 -3331 -2z m1700 -42 c17 -20 5
-45 -20 -45 -11 0 -23 7 -26 15 -6 15 11 45 26 45 4 0 13 -7 20 -15z m-546
-557 c8 -13 8 -23 0 -35 -10 -17 -41 -18 -369 -21 -368 -2 -385 -1 -385 37 0
40 11 41 384 39 329 -3 360 -4 370 -20z m280 -200 c8 -13 8 -23 0 -35 -10 -17
-47 -18 -509 -21 -359 -1 -502 1 -511 9 -15 12 -19 51 -7 62 3 4 234 6 511 5
468 -3 506 -4 516 -20z m480 0 c8 -13 8 -23 0 -35 -10 -16 -31 -18 -169 -21
-162 -3 -185 2 -185 37 0 38 19 42 184 39 139 -3 160 -5 170 -20z m-879 -218
l0 -35 -164 -3 c-112 -2 -168 1 -177 9 -15 12 -19 51 -7 63 4 3 84 5 177 4
l171 -3 0 -35z m1239 18 c8 -13 8 -23 0 -35 -10 -17 -49 -18 -549 -21 -554 -2
-565 -2 -565 37 0 41 2 41 563 39 502 -3 541 -4 551 -20z m480 0 c8 -13 8 -23
0 -35 -10 -16 -31 -18 -169 -21 -162 -3 -185 2 -185 37 0 38 19 42 184 39 139
-3 160 -5 170 -20z m-1719 -218 l0 -35 -164 -3 c-112 -2 -168 1 -177 9 -15 12
-19 51 -7 63 4 3 84 5 177 4 l171 -3 0 -35z m1239 18 c8 -13 8 -23 0 -35 -10
-17 -49 -18 -549 -21 -554 -2 -565 -2 -565 37 0 41 2 41 563 39 502 -3 541 -4
551 -20z m480 0 c8 -13 8 -23 0 -35 -10 -16 -31 -18 -169 -21 -162 -3 -185 2
-185 37 0 38 19 42 184 39 139 -3 160 -5 170 -20z m-1719 -218 l0 -35 -164 -3
c-112 -2 -168 1 -177 9 -15 12 -19 51 -7 63 4 3 84 5 177 4 l171 -3 0 -35z
m1239 18 c8 -13 8 -23 0 -35 -10 -17 -49 -18 -549 -21 -554 -2 -565 -2 -565
37 0 41 2 41 563 39 502 -3 541 -4 551 -20z m480 0 c8 -13 8 -23 0 -35 -10
-16 -31 -18 -169 -21 -162 -3 -185 2 -185 37 0 38 19 42 184 39 139 -3 160 -5
170 -20z m-1320 -200 c8 -13 8 -23 0 -35 -10 -17 -47 -18 -509 -21 -513 -2
-525 -1 -525 37 0 41 4 41 524 39 463 -3 500 -4 510 -20z m480 0 c8 -13 8 -23
0 -35 -10 -16 -31 -18 -169 -21 -162 -3 -185 2 -185 37 0 38 19 42 184 39 139
-3 160 -5 170 -20z m-760 -200 c8 -13 8 -23 0 -35 -10 -17 -41 -18 -369 -21
-368 -2 -385 -1 -385 37 0 40 11 41 384 39 329 -3 360 -4 370 -20z m1600 -120
c8 -13 8 -23 0 -35 -10 -16 -31 -18 -169 -21 -162 -3 -185 2 -185 37 0 38 19
42 184 39 139 -3 160 -5 170 -20z"/>
<path d="M2523 1628 c-41 -11 -63 -42 -63 -91 0 -80 94 -117 157 -63 36 32 39
93 4 129 -27 29 -54 36 -98 25z"/>
</g>
</svg>
